<svg version="1.1" id="Layer_1" xmlns="http://www.w3.org/2000/svg" xmlns:xlink="http://www.w3.org/1999/xlink" x="0px" y="0px"
	 width="100%" viewBox="0 0 472 473" enable-background="new 0 0 472 473" xml:space="preserve">
<path fill="#393939" opacity="1.000000" stroke="none" 
	d="
M473.000000,239.000000 
	C473.000000,239.750000 473.000000,240.500000 472.780243,241.645142 
	C472.340179,242.195267 472.119873,242.350266 471.899567,242.505249 
	C472.266388,242.670166 472.633179,242.835083 473.000000,243.000000 
	C473.000000,245.041672 473.000000,247.083328 472.780273,249.582642 
	C472.340210,250.195282 472.119904,250.350281 471.899597,250.505249 
	C472.266388,250.670151 472.633209,250.835068 473.000000,251.000000 
	C473.000000,253.700012 473.000000,256.400024 472.608765,259.719696 
	C471.493103,266.382202 470.814697,272.431000 470.035889,278.466827 
	C467.469543,298.356079 461.276886,317.207642 453.023682,335.359711 
	C436.120270,372.537018 410.297791,402.795288 378.266235,427.536163 
	C345.784729,452.624512 308.971100,467.996643 267.796509,472.068115 
	C263.509247,472.492065 259.264496,473.345703 255.000000,474.000000 
	C243.312439,474.000000 231.624878,474.000000 219.291183,473.605286 
	C204.970215,471.254364 191.035309,470.371948 177.670609,467.135132 
	C141.513214,458.378113 109.601067,441.044495 81.925148,416.181641 
	C53.336437,390.498749 30.397596,360.616455 16.454782,324.508453 
	C12.516498,314.309418 10.070601,303.534119 7.167727,292.818390 
	C6.981299,291.744293 6.567372,290.874878 6.069599,289.682068 
	C5.970578,288.913483 5.955403,288.468292 6.167726,287.818390 
	C5.981295,286.744293 5.567368,285.874878 5.069596,284.682068 
	C4.970578,283.913483 4.955403,283.468292 5.167727,282.818390 
	C4.981297,281.744293 4.567370,280.874878 4.069701,279.639709 
	C3.970716,278.523682 3.955473,277.773376 4.179710,276.792297 
	C3.997276,275.376160 3.575360,274.190857 3.069702,272.639740 
	C2.970716,271.523682 2.955473,270.773376 3.186859,269.773071 
	C3.006808,268.017212 2.580126,266.511353 2.069709,264.600525 
	C1.940843,262.819427 1.895712,261.443329 2.121858,259.790955 
	C1.928757,257.343109 1.464379,255.171555 1.000000,253.000000 
	C1.000000,240.312439 1.000000,227.624878 1.384703,214.286835 
	C3.065329,197.675873 6.157068,182.132843 10.818969,166.752457 
	C20.567980,134.588852 36.956112,106.276833 59.340878,81.495010 
	C77.604721,61.275398 98.034935,43.587311 122.107758,30.240219 
	C148.428162,15.646955 176.216492,6.098128 206.176712,2.936226 
	C210.471420,2.482976 214.726547,1.654711 219.000000,1.000000 
	C230.354233,1.000000 241.708450,1.000000 253.720657,1.389747 
	C264.960785,3.168070 275.610687,4.170907 286.112762,6.015493 
	C321.649384,12.257173 353.083282,27.740147 381.173218,49.977772 
	C390.171326,57.101177 398.094055,65.626701 406.209778,73.807388 
	C413.019226,80.671349 419.843811,87.606728 425.872345,95.141991 
	C441.054626,114.118721 452.409485,135.309021 460.501495,158.223953 
	C465.711670,172.978027 469.464233,188.076706 471.074036,203.683792 
	C471.465759,207.481674 472.344940,211.229279 473.000000,215.000000 
	C473.000000,218.361282 473.000000,221.722580 472.780243,225.562073 
	C472.340179,226.195267 472.119873,226.350266 471.899567,226.505249 
	C472.266388,226.670151 472.633179,226.835068 473.000000,227.000000 
	C473.000000,229.041672 473.000000,231.083328 472.780243,233.582626 
	C472.340179,234.195251 472.119873,234.350250 471.899567,234.505249 
	C472.266388,234.670166 472.633179,234.835083 473.000000,235.000000 
	C473.000000,235.750000 473.000000,236.500000 472.780243,237.645142 
	C472.340179,238.195267 472.119873,238.350266 471.899567,238.505249 
	C472.266388,238.670166 472.633179,238.835083 473.000000,239.000000 
M295.595154,291.874054 
	C299.688049,285.465973 303.780945,279.057861 308.061646,272.011047 
	C312.139496,265.959106 316.217346,259.907166 320.588013,253.420654 
	C321.866333,255.267853 322.909485,256.738495 323.915314,258.234222 
	C338.857147,280.452820 353.842773,302.642303 368.677124,324.932434 
	C370.794739,328.114380 372.982788,329.722351 377.058838,329.513824 
	C384.700317,329.122925 392.376678,329.345245 400.037292,329.428894 
	C403.343079,329.464935 406.645752,329.790436 410.822998,330.035736 
	C386.573212,296.188690 363.059601,263.369141 339.489746,230.471161 
	C340.341705,229.202118 341.026154,228.078979 341.810150,227.030243 
	C354.462036,210.106049 367.127045,193.191650 379.788177,176.274323 
	C386.666168,167.084274 393.572235,157.914810 400.365509,148.662552 
	C400.938110,147.882675 403.828461,146.104492 399.622803,144.933243 
	C399.060883,144.642426 398.500732,144.102066 397.936737,144.098007 
	C388.553589,144.030243 379.169464,143.985199 369.787109,144.083603 
	C368.860504,144.093323 367.944061,145.072662 366.410645,145.971207 
	C351.188843,167.261948 335.967041,188.552704 320.606903,210.036957 
	C305.624146,188.288559 290.920441,166.945267 275.649811,144.901779 
	C275.219849,144.666824 274.791656,144.230118 274.359680,144.226334 
	C262.923340,144.126205 251.486618,144.054688 240.050140,144.076889 
	C239.662994,144.077637 239.277847,145.098785 238.598434,146.364319 
	C252.624329,165.577362 266.645721,184.793671 280.677979,204.002075 
	C287.709717,213.627655 294.761139,223.238861 301.778900,232.822769 
	C278.813202,265.070404 256.142029,296.904419 232.998932,329.401123 
	C244.531235,329.401123 254.833755,329.268097 265.129181,329.479614 
	C268.349365,329.545807 270.229523,328.539062 272.007690,325.836121 
	C279.496857,314.452118 287.244293,303.238037 295.595154,291.874054 
M114.318726,293.894379 
	C98.111969,281.450165 93.791565,264.201721 94.091301,244.411636 
	C138.222870,244.411636 181.928635,244.411636 225.793304,244.411636 
	C226.555496,230.154724 224.868362,216.598572 220.679810,203.590988 
	C210.931519,173.317520 192.700378,151.778778 159.456909,146.336655 
	C122.141174,140.227890 85.968262,160.553513 71.515015,195.572052 
	C62.475658,217.473358 61.981815,239.820480 66.469986,262.679474 
	C69.536758,278.299011 75.194336,293.069092 85.843010,304.717407 
	C100.711952,320.982147 120.193466,328.524933 142.258026,329.325775 
	C166.485092,330.205078 188.561188,325.001831 206.122345,306.973663 
	C215.401657,297.447540 220.634018,285.924469 222.996704,272.600555 
	C214.255142,272.600555 206.092499,272.459503 197.944183,272.738098 
	C196.571045,272.785065 194.394547,274.412659 194.050797,275.700165 
	C189.442368,292.961517 170.101593,304.120911 153.942352,303.487885 
	C153.783630,303.287140 153.624893,303.086426 153.466141,302.885681 
	C153.310699,303.243439 153.155258,303.601196 152.181519,304.163818 
	C150.787689,304.107330 149.393860,304.050842 147.876511,303.412048 
	C147.181396,303.067108 146.487656,302.424957 145.790970,302.421753 
	C135.198502,302.372833 125.514748,299.434845 116.685684,293.580444 
	C116.365555,293.368164 115.555885,293.894135 114.318726,293.894379 
z"/>
<path fill="#FFFFFF" opacity="1.000000" stroke="none" 
	d="
M473.000000,214.531342 
	C472.344940,211.229279 471.465759,207.481674 471.074036,203.683792 
	C469.464233,188.076706 465.711670,172.978027 460.501495,158.223953 
	C452.409485,135.309021 441.054626,114.118721 425.872345,95.141991 
	C419.843811,87.606728 413.019226,80.671349 406.209778,73.807388 
	C398.094055,65.626701 390.171326,57.101177 381.173218,49.977772 
	C353.083282,27.740147 321.649384,12.257173 286.112762,6.015493 
	C275.610687,4.170907 264.960785,3.168070 254.189316,1.389747 
	C326.926178,1.000000 399.852386,1.000000 473.000000,1.000000 
	C473.000000,72.020744 473.000000,143.041718 473.000000,214.531342 
z"/>
<path fill="#FFFFFF" opacity="1.000000" stroke="none" 
	d="
M218.531342,1.000000 
	C214.726547,1.654711 210.471420,2.482976 206.176712,2.936226 
	C176.216492,6.098128 148.428162,15.646955 122.107758,30.240219 
	C98.034935,43.587311 77.604721,61.275398 59.340878,81.495010 
	C36.956112,106.276833 20.567980,134.588852 10.818969,166.752457 
	C6.157068,182.132843 3.065329,197.675873 1.384703,213.818176 
	C1.000000,143.072113 1.000000,72.144234 1.000000,1.000000 
	C73.354080,1.000000 145.708389,1.000000 218.531342,1.000000 
z"/>
<path fill="#FFFFFF" opacity="1.000000" stroke="none" 
	d="
M255.468658,474.000000 
	C259.264496,473.345703 263.509247,472.492065 267.796509,472.068115 
	C308.971100,467.996643 345.784729,452.624512 378.266235,427.536163 
	C410.297791,402.795288 436.120270,372.537018 453.023682,335.359711 
	C461.276886,317.207642 467.469543,298.356079 470.035889,278.466827 
	C470.814697,272.431000 471.493103,266.382202 472.608765,260.169678 
	C473.000000,331.261047 473.000000,402.522064 473.000000,474.000000 
	C400.645905,474.000000 328.291626,474.000000 255.468658,474.000000 
z"/>
<path fill="#FFFFFF" opacity="1.000000" stroke="none" 
	d="
M5.940228,288.023102 
	C5.955403,288.468292 5.970578,288.913483 6.022882,290.014404 
	C6.353418,291.454468 6.646824,292.238800 6.940228,293.023102 
	C10.070601,303.534119 12.516498,314.309418 16.454782,324.508453 
	C30.397596,360.616455 53.336437,390.498749 81.925148,416.181641 
	C109.601067,441.044495 141.513214,458.378113 177.670609,467.135132 
	C191.035309,470.371948 204.970215,471.254364 218.822525,473.605286 
	C146.406982,474.000000 73.813957,474.000000 1.000000,474.000000 
	C1.000000,402.979248 1.000000,331.958282 1.211218,260.503540 
	C1.422436,260.069733 1.850581,260.067230 1.850581,260.067230 
	C1.895712,261.443329 1.940843,262.819427 2.008064,264.979858 
	C2.333513,267.183838 2.636871,268.603485 2.940229,270.023102 
	C2.955473,270.773376 2.970716,271.523682 3.008503,272.998291 
	C3.334107,274.822815 3.637168,275.922943 3.940229,277.023102 
	C3.955473,277.773376 3.970716,278.523682 4.022987,279.972046 
	C4.353420,281.454468 4.646826,282.238800 4.940231,283.023102 
	C4.955403,283.468292 4.970578,283.913483 5.022881,285.014404 
	C5.353415,286.454468 5.646821,287.238800 5.940228,288.023102 
z"/>
<path fill="#333333" opacity="1.000000" stroke="none" 
	d="
M2.121858,259.790955 
	C1.850581,260.067230 1.422436,260.069733 1.211218,260.034851 
	C1.000000,257.958344 1.000000,255.916672 1.000000,253.437500 
	C1.464379,255.171555 1.928757,257.343109 2.121858,259.790955 
z"/>
<path fill="#2B2B2B" opacity="1.000000" stroke="none" 
	d="
M473.000000,250.750000 
	C472.633209,250.835068 472.266388,250.670151 471.899597,250.505249 
	C472.119904,250.350281 472.340210,250.195282 472.780273,250.020142 
	C473.000000,250.000000 473.000000,250.500000 473.000000,250.750000 
z"/>
<path fill="#2B2B2B" opacity="1.000000" stroke="none" 
	d="
M473.000000,242.750000 
	C472.633179,242.835083 472.266388,242.670166 471.899567,242.505249 
	C472.119873,242.350266 472.340179,242.195267 472.780243,242.020142 
	C473.000000,242.000000 473.000000,242.500000 473.000000,242.750000 
z"/>
<path fill="#2B2B2B" opacity="1.000000" stroke="none" 
	d="
M473.000000,238.750000 
	C472.633179,238.835083 472.266388,238.670166 471.899567,238.505249 
	C472.119873,238.350266 472.340179,238.195267 472.780243,238.020142 
	C473.000000,238.000000 473.000000,238.500000 473.000000,238.750000 
z"/>
<path fill="#2B2B2B" opacity="1.000000" stroke="none" 
	d="
M473.000000,234.750000 
	C472.633179,234.835083 472.266388,234.670166 471.899567,234.505249 
	C472.119873,234.350250 472.340179,234.195251 472.780243,234.020126 
	C473.000000,234.000000 473.000000,234.500000 473.000000,234.750000 
z"/>
<path fill="#2B2B2B" opacity="1.000000" stroke="none" 
	d="
M473.000000,226.750000 
	C472.633179,226.835068 472.266388,226.670151 471.899567,226.505249 
	C472.119873,226.350266 472.340179,226.195267 472.780243,226.020142 
	C473.000000,226.000000 473.000000,226.500000 473.000000,226.750000 
z"/>
<path fill="#FEFEFE" opacity="1.000000" stroke="none" 
	d="
M154.000336,303.906006 
	C170.101593,304.120911 189.442368,292.961517 194.050797,275.700165 
	C194.394547,274.412659 196.571045,272.785065 197.944183,272.738098 
	C206.092499,272.459503 214.255142,272.600555 222.996704,272.600555 
	C220.634018,285.924469 215.401657,297.447540 206.122345,306.973663 
	C188.561188,325.001831 166.485092,330.205078 142.258026,329.325775 
	C120.193466,328.524933 100.711952,320.982147 85.843010,304.717407 
	C75.194336,293.069092 69.536758,278.299011 66.469986,262.679474 
	C61.981815,239.820480 62.475658,217.473358 71.515015,195.572052 
	C85.968262,160.553513 122.141174,140.227890 159.456909,146.336655 
	C192.700378,151.778778 210.931519,173.317520 220.679810,203.590988 
	C224.868362,216.598572 226.555496,230.154724 225.793304,244.411636 
	C181.928635,244.411636 138.222870,244.411636 94.091301,244.411636 
	C93.791565,264.201721 98.111969,281.450165 114.821548,294.275879 
	C125.219116,301.259308 136.038803,304.624298 148.000031,303.994354 
	C149.393860,304.050842 150.787689,304.107330 152.844299,304.114258 
	C153.671494,304.011810 153.835922,303.958893 154.000336,303.906006 
M133.221024,172.017365 
	C127.412254,174.652252 121.603477,177.287125 115.137962,180.047470 
	C112.417053,182.678635 109.696136,185.309814 106.362396,188.229263 
	C98.810181,197.669083 94.830559,208.389572 94.098167,220.894196 
	C98.910316,220.894196 103.042206,220.894180 107.174095,220.894180 
	C134.948135,220.894211 162.722290,220.923767 190.495880,220.813538 
	C192.000031,220.807571 193.499512,219.631500 195.091446,218.203812 
	C194.695343,216.136795 194.299240,214.069778 193.967819,211.222351 
	C191.785736,202.563705 188.476593,194.479630 181.924042,187.321716 
	C180.326538,185.863998 178.729034,184.406296 176.771362,182.373627 
	C168.055939,175.422897 158.291641,171.251785 146.098236,170.990265 
	C142.065796,171.355530 138.033356,171.720779 133.221024,172.017365 
z"/>
<path fill="#FDFDFD" opacity="1.000000" stroke="none" 
	d="
M399.976715,145.598129 
	C403.828461,146.104492 400.938110,147.882675 400.365509,148.662552 
	C393.572235,157.914810 386.666168,167.084274 379.788177,176.274323 
	C367.127045,193.191650 354.462036,210.106049 341.810150,227.030243 
	C341.026154,228.078979 340.341705,229.202118 339.489746,230.471161 
	C363.059601,263.369141 386.573212,296.188690 410.822998,330.035736 
	C406.645752,329.790436 403.343079,329.464935 400.037292,329.428894 
	C392.376678,329.345245 384.700317,329.122925 377.058838,329.513824 
	C372.982788,329.722351 370.794739,328.114380 368.677124,324.932434 
	C353.842773,302.642303 338.857147,280.452820 323.915314,258.234222 
	C322.909485,256.738495 321.866333,255.267853 320.588013,253.420654 
	C316.217346,259.907166 312.139496,265.959106 307.703186,272.554199 
	C303.195587,279.385468 299.046417,285.673645 294.897217,291.961792 
	C287.244293,303.238037 279.496857,314.452118 272.007690,325.836121 
	C270.229523,328.539062 268.349365,329.545807 265.129181,329.479614 
	C254.833755,329.268097 244.531235,329.401123 232.998932,329.401123 
	C256.142029,296.904419 278.813202,265.070404 301.778900,232.822769 
	C294.761139,223.238861 287.709717,213.627655 280.677979,204.002075 
	C266.645721,184.793671 252.624329,165.577362 239.216583,146.071228 
	C251.962067,145.719406 264.089386,145.660675 276.216736,145.601959 
	C290.920441,166.945267 305.624146,188.288559 320.606903,210.036957 
	C335.967041,188.552704 351.188843,167.261948 367.177002,145.872009 
	C378.621155,145.714569 389.298950,145.656357 399.976715,145.598129 
z"/>
<path fill="#2B2B2B" opacity="1.000000" stroke="none" 
	d="
M275.933289,145.251862 
	C264.089386,145.660675 251.962067,145.719406 239.363251,145.711212 
	C239.277847,145.098785 239.662994,144.077637 240.050140,144.076889 
	C251.486618,144.054688 262.923340,144.126205 274.359680,144.226334 
	C274.791656,144.230118 275.219849,144.666824 275.933289,145.251862 
z"/>
<path fill="#2B2B2B" opacity="1.000000" stroke="none" 
	d="
M399.799744,145.265686 
	C389.298950,145.656357 378.621155,145.714569 367.483154,145.687378 
	C367.944061,145.072662 368.860504,144.093323 369.787109,144.083603 
	C379.169464,143.985199 388.553589,144.030243 397.936737,144.098007 
	C398.500732,144.102066 399.060883,144.642426 399.799744,145.265686 
z"/>
<path fill="#3A3A3A" opacity="1.000000" stroke="none" 
	d="
M147.938263,303.703186 
	C136.038803,304.624298 125.219116,301.259308 115.149361,294.366760 
	C115.555885,293.894135 116.365555,293.368164 116.685684,293.580444 
	C125.514748,299.434845 135.198502,302.372833 145.790970,302.421753 
	C146.487656,302.424957 147.181396,303.067108 147.938263,303.703186 
z"/>
<path fill="#3B3B3B" opacity="1.000000" stroke="none" 
	d="
M295.246185,291.917908 
	C299.046417,285.673645 303.195587,279.385468 307.609314,272.873535 
	C303.780945,279.057861 299.688049,285.465973 295.246185,291.917908 
z"/>
<path fill="#333333" opacity="1.000000" stroke="none" 
	d="
M3.186860,269.773071 
	C2.636871,268.603485 2.333513,267.183838 2.091799,265.384888 
	C2.580126,266.511353 3.006808,268.017212 3.186860,269.773071 
z"/>
<path fill="#333333" opacity="1.000000" stroke="none" 
	d="
M4.179710,276.792297 
	C3.637168,275.922943 3.334107,274.822815 3.092245,273.364075 
	C3.575360,274.190857 3.997276,275.376160 4.179710,276.792297 
z"/>
<path fill="#333333" opacity="1.000000" stroke="none" 
	d="
M7.167728,292.818390 
	C6.646824,292.238800 6.353418,291.454468 6.106729,290.337830 
	C6.567372,290.874878 6.981299,291.744293 7.167728,292.818390 
z"/>
<path fill="#333333" opacity="1.000000" stroke="none" 
	d="
M6.167725,287.818390 
	C5.646821,287.238800 5.353415,286.454468 5.106725,285.337830 
	C5.567368,285.874878 5.981295,286.744293 6.167725,287.818390 
z"/>
<path fill="#333333" opacity="1.000000" stroke="none" 
	d="
M5.167728,282.818390 
	C4.646826,282.238800 4.353420,281.454468 4.106729,280.337830 
	C4.567370,280.874878 4.981297,281.744293 5.167728,282.818390 
z"/>
<path fill="#3A3A3A" opacity="1.000000" stroke="none" 
	d="
M153.971344,303.696960 
	C153.835922,303.958893 153.671494,304.011810 153.253448,304.011841 
	C153.155258,303.601196 153.310699,303.243439 153.466156,302.885681 
	C153.624893,303.086426 153.783630,303.287140 153.971344,303.696960 
z"/>
<path fill="#393939" opacity="1.000000" stroke="none" 
	d="
M106.975220,187.940994 
	C109.696136,185.309814 112.417053,182.678635 115.855621,179.993713 
	C122.382484,177.321991 128.191696,174.704010 134.000916,172.086029 
	C138.033356,171.720779 142.065796,171.355530 146.672821,171.408386 
	C147.606857,172.148315 147.941757,172.717270 148.329330,172.755768 
	C157.833069,173.698959 166.552063,176.677719 174.284103,182.411926 
	C174.982040,182.929520 176.170746,182.785416 177.131531,182.948593 
	C178.729034,184.406296 180.326538,185.863998 181.795486,187.851425 
	C181.724991,188.992065 181.608994,189.691360 181.867462,190.200562 
	C185.221024,196.807312 188.605637,203.398682 192.050156,209.958344 
	C192.464142,210.746750 193.275803,211.326370 193.903137,212.002762 
	C194.299240,214.069778 194.695343,216.136795 194.577820,218.618942 
	C163.344360,219.039490 132.624527,219.050110 101.904709,219.046021 
	C95.587975,219.045181 95.510925,219.003738 96.870529,212.506729 
	C97.442970,209.771240 98.156784,207.006775 99.263519,204.453674 
	C101.678696,198.882095 104.386803,193.437485 106.975220,187.940994 
z"/>
<path fill="#484848" opacity="1.000000" stroke="none" 
	d="
M106.668808,188.085129 
	C104.386803,193.437485 101.678696,198.882095 99.263519,204.453674 
	C98.156784,207.006775 97.442970,209.771240 96.870529,212.506729 
	C95.510925,219.003738 95.587975,219.045181 101.904709,219.046021 
	C132.624527,219.050110 163.344360,219.039490 194.532684,219.017090 
	C193.499512,219.631500 192.000031,220.807571 190.495880,220.813538 
	C162.722290,220.923767 134.948135,220.894211 107.174095,220.894180 
	C103.042206,220.894180 98.910316,220.894196 94.098167,220.894196 
	C94.830559,208.389572 98.810181,197.669083 106.668808,188.085129 
z"/>
<path fill="#3E3E3E" opacity="1.000000" stroke="none" 
	d="
M176.951447,182.661102 
	C176.170746,182.785416 174.982040,182.929520 174.284103,182.411926 
	C166.552063,176.677719 157.833069,173.698959 148.329330,172.755768 
	C147.941757,172.717270 147.606857,172.148315 147.121841,171.482391 
	C158.291641,171.251785 168.055939,175.422897 176.951447,182.661102 
z"/>
<path fill="#3E3E3E" opacity="1.000000" stroke="none" 
	d="
M193.935486,211.612549 
	C193.275803,211.326370 192.464142,210.746750 192.050156,209.958344 
	C188.605637,203.398682 185.221024,196.807312 181.867462,190.200562 
	C181.608994,189.691360 181.724991,188.992065 181.886688,188.168610 
	C188.476593,194.479630 191.785736,202.563705 193.935486,211.612549 
z"/>
<path fill="#3B3B3B" opacity="1.000000" stroke="none" 
	d="
M133.610962,172.051697 
	C128.191696,174.704010 122.382484,177.321991 116.183990,179.930984 
	C121.603477,177.287125 127.412254,174.652252 133.610962,172.051697 
z"/>
</svg>